<svg xmlns="http://www.w3.org/2000/svg" height="24px" viewBox="0 -960 960 960" width="24px" fill="#1f1f1f"><path d="M518-436v119q0 17.77 12.62 30.38Q543.23-274 561-274t30.38-12.62Q604-299.23 604-317v-326q0-17.77-12.62-30.38Q578.77-686 561-686t-30.38 12.62Q518-660.77 518-643v121h-76v-121q0-17.77-12.62-30.38Q416.77-686 399-686t-30.38 12.62Q356-660.77 356-643v157.85q0 20.46 14.35 34.8Q384.69-436 405.15-436H518ZM212.31-114q-41.31 0-69.81-28.5T114-212.31v-535.38q0-41.31 28.5-69.81t69.81-28.5h535.38q41.31 0 69.81 28.5t28.5 69.81v535.38q0 41.31-28.5 69.81T747.69-114H212.31Z"/></svg>